<svg width="24" height="24" viewBox="0 0 24 24" fill="none" xmlns="http://www.w3.org/2000/svg">
<path d="M12.0004 15.5999C12.9552 15.5999 13.8708 15.2206 14.546 14.5455C15.2211 13.8704 15.6004 12.9547 15.6004 11.9999V5.9999C15.6004 5.04512 15.2211 4.12945 14.546 3.45432C13.8708 2.77919 12.9552 2.3999 12.0004 2.3999C11.0456 2.3999 10.1299 2.77919 9.45481 3.45432C8.77968 4.12945 8.40039 5.04512 8.40039 5.9999V11.9999C8.40039 12.9547 8.77968 13.8704 9.45481 14.5455C10.1299 15.2206 11.0456 15.5999 12.0004 15.5999ZM12.0004 14.3999C11.3639 14.3999 10.7534 14.147 10.3033 13.697C9.85325 13.2469 9.60039 12.6364 9.60039 11.9999V5.9999C9.60039 5.36338 9.85325 4.75293 10.3033 4.30285C10.7534 3.85276 11.3639 3.5999 12.0004 3.5999C12.6369 3.5999 13.2474 3.85276 13.6974 4.30285C14.1475 4.75293 14.4004 5.36338 14.4004 5.9999V11.9999C14.4004 12.6364 14.1475 13.2469 13.6974 13.697C13.2474 14.147 12.6369 14.3999 12.0004 14.3999ZM6.00039 11.3999C6.15952 11.3999 6.31213 11.4631 6.42465 11.5756C6.53718 11.6882 6.60039 11.8408 6.60039 11.9999C6.60039 12.709 6.74007 13.4112 7.01144 14.0664C7.28282 14.7216 7.68058 15.3168 8.18201 15.8183C8.68345 16.3197 9.27874 16.7175 9.9339 16.9889C10.5891 17.2602 11.2913 17.3999 12.0004 17.3999C12.7095 17.3999 13.4117 17.2602 14.0669 16.9889C14.722 16.7175 15.3173 16.3197 15.8188 15.8183C16.3202 15.3168 16.718 14.7216 16.9893 14.0664C17.2607 13.4112 17.4004 12.709 17.4004 11.9999C17.4004 11.8408 17.4636 11.6882 17.5761 11.5756C17.6886 11.4631 17.8413 11.3999 18.0004 11.3999C18.1595 11.3999 18.3121 11.4631 18.4247 11.5756C18.5372 11.6882 18.6004 11.8408 18.6004 11.9999C18.6006 13.6466 17.9853 15.2339 16.8751 16.4502C15.765 17.6665 14.2403 18.4238 12.6004 18.5735V20.9999C12.6004 21.159 12.5372 21.3116 12.4247 21.4242C12.3121 21.5367 12.1595 21.5999 12.0004 21.5999C11.8413 21.5999 11.6886 21.5367 11.5761 21.4242C11.4636 21.3116 11.4004 21.159 11.4004 20.9999V18.5735C9.76049 18.4238 8.23579 17.6665 7.12565 16.4502C6.01552 15.2339 5.40016 13.6466 5.40039 11.9999C5.40039 11.8408 5.4636 11.6882 5.57613 11.5756C5.68865 11.4631 5.84126 11.3999 6.00039 11.3999Z" fill="black"/>
</svg>
